<mxfile host="app.diagrams.net" modified="2022-11-27T21:33:01.185Z" agent="5.0 (Windows NT 10.0; Win64; x64) AppleWebKit/537.36 (KHTML, like Gecko) Chrome/107.0.0.0 Safari/537.36" etag="THFJCiplucMoC2n-3N9M" version="20.6.0" type="github">
  <diagram id="50rMCRImLwoTMRVvQpYY" name="Page-1">
    <mxGraphModel dx="554" dy="311" grid="1" gridSize="10" guides="1" tooltips="1" connect="1" arrows="1" fold="1" page="1" pageScale="1" pageWidth="850" pageHeight="1100" math="0" shadow="0">
      <root>
        <mxCell id="0" />
        <mxCell id="1" parent="0" />
        <mxCell id="czEzKlVumUcDoeXTWKoG-15" value="" style="rounded=1;whiteSpace=wrap;html=1;dashed=1;strokeColor=#b85450;fillColor=#f8cecc;" vertex="1" parent="1">
          <mxGeometry x="310" y="130" width="68.5" height="100" as="geometry" />
        </mxCell>
        <mxCell id="scrvZO9RHkO35neldZQP-2" value="type of" style="edgeStyle=orthogonalEdgeStyle;rounded=0;orthogonalLoop=1;jettySize=auto;html=1;exitX=0.5;exitY=1;exitDx=0;exitDy=0;exitPerimeter=0;startArrow=none;startFill=0;endArrow=classic;endFill=1;" parent="1" source="rFXowegjZRmhvIvWNKh0-10" target="scrvZO9RHkO35neldZQP-1" edge="1">
          <mxGeometry relative="1" as="geometry" />
        </mxCell>
        <mxCell id="rFXowegjZRmhvIvWNKh0-10" value="" style="verticalLabelPosition=bottom;verticalAlign=top;html=1;shape=mxgraph.basic.frame;dx=10;whiteSpace=wrap;fillColor=#dae8fc;strokeColor=#6c8ebf;" parent="1" vertex="1">
          <mxGeometry x="176" y="155" width="120" height="50" as="geometry" />
        </mxCell>
        <mxCell id="rFXowegjZRmhvIvWNKh0-11" value="Micrsoft TechEd &lt;br&gt;Europe" style="text;html=1;align=center;verticalAlign=middle;resizable=0;points=[];autosize=1;strokeColor=#6c8ebf;fillColor=#dae8fc;" parent="1" vertex="1">
          <mxGeometry x="181" y="160" width="110" height="40" as="geometry" />
        </mxCell>
        <mxCell id="rFXowegjZRmhvIvWNKh0-17" value="Head entity" style="text;html=1;strokeColor=none;fillColor=none;align=center;verticalAlign=middle;whiteSpace=wrap;rounded=0;dashed=1;fontFamily=Times New Roman;fontColor=#EA6B66;" parent="1" vertex="1">
          <mxGeometry x="206" y="125" width="60" height="30" as="geometry" />
        </mxCell>
        <mxCell id="rFXowegjZRmhvIvWNKh0-18" value="Answer entity" style="text;html=1;strokeColor=none;fillColor=none;align=center;verticalAlign=middle;whiteSpace=wrap;rounded=0;dashed=1;fontFamily=Times New Roman;fontColor=#EA6B66;" parent="1" vertex="1">
          <mxGeometry x="363" y="90" width="125" height="30" as="geometry" />
        </mxCell>
        <mxCell id="scrvZO9RHkO35neldZQP-1" value="event" style="text;html=1;strokeColor=none;fillColor=none;align=center;verticalAlign=middle;whiteSpace=wrap;rounded=0;" parent="1" vertex="1">
          <mxGeometry x="196" y="240" width="80" height="10" as="geometry" />
        </mxCell>
        <mxCell id="czEzKlVumUcDoeXTWKoG-8" value="organizer" style="edgeStyle=orthogonalEdgeStyle;rounded=0;orthogonalLoop=1;jettySize=auto;html=1;exitX=0;exitY=0.75;exitDx=0;exitDy=0;" edge="1" parent="1" source="scrvZO9RHkO35neldZQP-3">
          <mxGeometry relative="1" as="geometry">
            <mxPoint x="300" y="159.89473684210532" as="targetPoint" />
          </mxGeometry>
        </mxCell>
        <mxCell id="czEzKlVumUcDoeXTWKoG-12" style="edgeStyle=orthogonalEdgeStyle;rounded=0;orthogonalLoop=1;jettySize=auto;html=1;exitX=1;exitY=0.5;exitDx=0;exitDy=0;" edge="1" parent="1" source="scrvZO9RHkO35neldZQP-3" target="scrvZO9RHkO35neldZQP-5">
          <mxGeometry relative="1" as="geometry" />
        </mxCell>
        <mxCell id="czEzKlVumUcDoeXTWKoG-13" value="type of" style="edgeLabel;html=1;align=center;verticalAlign=middle;resizable=0;points=[];" vertex="1" connectable="0" parent="czEzKlVumUcDoeXTWKoG-12">
          <mxGeometry x="-0.2129" y="1" relative="1" as="geometry">
            <mxPoint x="7" as="offset" />
          </mxGeometry>
        </mxCell>
        <mxCell id="scrvZO9RHkO35neldZQP-3" value="organization name1" style="rounded=0;whiteSpace=wrap;html=1;fillColor=#dae8fc;strokeColor=#6c8ebf;" parent="1" vertex="1">
          <mxGeometry x="385" y="130" width="80" height="40" as="geometry" />
        </mxCell>
        <mxCell id="scrvZO9RHkO35neldZQP-5" value="organization" style="text;html=1;strokeColor=none;fillColor=none;align=center;verticalAlign=middle;whiteSpace=wrap;rounded=0;" parent="1" vertex="1">
          <mxGeometry x="530" y="145" width="80" height="10" as="geometry" />
        </mxCell>
        <mxCell id="czEzKlVumUcDoeXTWKoG-9" value="sponsor" style="edgeStyle=orthogonalEdgeStyle;rounded=0;orthogonalLoop=1;jettySize=auto;html=1;exitX=0;exitY=0.25;exitDx=0;exitDy=0;" edge="1" parent="1" source="scrvZO9RHkO35neldZQP-7">
          <mxGeometry relative="1" as="geometry">
            <mxPoint x="300" y="199.89473684210532" as="targetPoint" />
          </mxGeometry>
        </mxCell>
        <mxCell id="czEzKlVumUcDoeXTWKoG-14" value="type of" style="edgeStyle=orthogonalEdgeStyle;rounded=0;orthogonalLoop=1;jettySize=auto;html=1;exitX=1;exitY=0.5;exitDx=0;exitDy=0;entryX=0;entryY=0.5;entryDx=0;entryDy=0;" edge="1" parent="1" source="scrvZO9RHkO35neldZQP-7" target="scrvZO9RHkO35neldZQP-11">
          <mxGeometry relative="1" as="geometry" />
        </mxCell>
        <mxCell id="scrvZO9RHkO35neldZQP-7" value="organization name2" style="rounded=0;whiteSpace=wrap;html=1;fillColor=#dae8fc;strokeColor=#6c8ebf;" parent="1" vertex="1">
          <mxGeometry x="385.5" y="190" width="80" height="40" as="geometry" />
        </mxCell>
        <mxCell id="scrvZO9RHkO35neldZQP-11" value="organization" style="text;html=1;strokeColor=none;fillColor=none;align=center;verticalAlign=middle;whiteSpace=wrap;rounded=0;" parent="1" vertex="1">
          <mxGeometry x="530" y="205" width="80" height="10" as="geometry" />
        </mxCell>
        <mxCell id="scrvZO9RHkO35neldZQP-28" value="&lt;b&gt;Multi-relation&lt;br&gt;type&lt;/b&gt;" style="text;html=1;strokeColor=none;fillColor=none;align=center;verticalAlign=middle;whiteSpace=wrap;rounded=0;dashed=1;fontFamily=Times New Roman;fontColor=#EA6B66;" parent="1" vertex="1">
          <mxGeometry x="281.75" y="95" width="125" height="30" as="geometry" />
        </mxCell>
      </root>
    </mxGraphModel>
  </diagram>
</mxfile>
